<svg xmlns="http://www.w3.org/2000/svg" viewBox="0 0 315 215" class="svg-logo" width="315" height="215" style="height: auto;">
    <rect rx="10" ry="10" width="100%" height="100%" fill="rgba(240, 240, 240, 1.0)"></rect>
    <g data-element="wrapper" transform="translate(131.26690601893583 89.59486380980135) scale(0.16655935913684083)">
        <g data-element="container" transform="translate(-234.4431800553175 -284.44402730460615) scale(1.3064783383722174)">
            <g>
                <path id="fill_x5F_1_96_" fill="transparent" d="M589.593,300.002c-14.27-11.013-38.548-17.635-54.598-9.881
	c-1.207-58.557-24.146-111.748-68.83-156.432C421.5,89.024,367.343,66.086,308.814,64.858c3.269-6.562,5.006-13.827,5.006-21.334
	c0-10.686-7.505-24.889-13.968-33.264c-6.462,8.375-13.967,22.577-13.967,33.264c0,7.506,1.736,14.772,5.006,21.334
	c-58.53,1.227-112.688,24.165-157.353,68.83c-44.685,44.684-67.625,97.876-68.831,156.432c-16.046-7.754-40.326-1.132-54.597,9.881
	c14.271,11.013,38.551,16.635,54.597,8.881c1.208,58.556,24.146,112.747,68.83,157.431c44.664,44.664,98.823,67.603,157.353,68.83
	c-3.269,6.564-5.006,13.829-5.006,21.335c0,10.686,7.505,24.889,13.967,33.264c6.463-8.375,13.968-22.578,13.968-33.264
	c0-7.506-1.737-14.772-5.006-21.335c58.528-1.227,112.686-24.166,157.351-68.83c44.684-44.684,67.622-98.876,68.83-157.431
	C551.045,316.637,575.323,311.015,589.593,300.002z"></path>
                <path id="frame_x5F_1_96_" d="M598.087,529.885c-3.112-8.113-9.646-14.751-17.628-18.152c-1.435-0.614-2.9-1.128-4.381-1.539
	c0.379-0.33,0.799-0.599,1.173-0.94c22.337-20.393,22.342-59.284-5.072-75.517c-2.821-1.669-6.016-3-9.261-3.957V319.122
	c11.608-1.854,22.383-7.167,30.987-15.522l3.707-3.599l-3.707-3.599c-8.604-8.354-19.379-13.667-30.987-15.522V170.225
	c3.258-0.964,6.453-2.296,9.265-3.962c27.4-16.245,27.414-55.118,5.067-75.517c-0.374-0.34-0.791-0.608-1.173-0.936
	c1.485-0.414,2.95-0.928,4.389-1.544c22.634-9.66,27.915-46.118,1.548-54.856c-0.591-0.198-1.277-0.199-1.901-0.349
	c-0.969-3.11-2.596-5.989-4.963-8.358c-2.413-2.411-5.305-4.001-8.354-4.953c-0.15-0.629-0.154-1.311-0.349-1.912
	c-8.757-26.323-45.206-21.132-54.864,1.556c-0.612,1.435-1.128,2.9-1.539,4.381c-0.329-0.381-0.599-0.801-0.94-1.173
	c-20.391-22.336-59.281-22.341-75.517,5.067c-1.668,2.821-3,6.016-3.957,9.265H318.973c-1.856-11.606-7.168-22.384-15.523-30.987
	l-3.599-3.707l-3.599,3.707c-8.354,8.603-13.667,19.382-15.523,30.987H170.078c-0.965-3.26-2.297-6.457-3.965-9.269
	C149.887,0.272,110.976,0.25,90.601,22.602c-0.341,0.373-0.612,0.793-0.94,1.174c-0.412-1.482-0.928-2.948-1.539-4.386
	C78.44-3.214,42.009-8.561,33.262,17.834c-0.2,0.596-0.2,1.286-0.354,1.915c-3.05,0.951-5.941,2.541-8.35,4.954
	c-2.372,2.368-3.994,5.247-4.963,8.355c-0.624,0.151-1.315,0.152-1.906,0.348C-8.663,42.174-3.41,78.582,19.244,88.271
	c1.435,0.614,2.9,1.127,4.377,1.539c-0.379,0.328-0.799,0.596-1.169,0.936c-22.346,20.398-22.334,59.275,5.067,75.521
	c2.808,1.662,6.004,2.993,9.265,3.957v110.657c-11.608,1.854-22.383,7.168-30.987,15.522l-3.707,3.599l3.707,3.599
	c8.604,8.354,19.379,13.667,30.987,15.522V429.78c-3.249,0.958-6.445,2.286-9.265,3.957C0.122,449.966,0.098,488.87,22.452,509.25
	c0.374,0.342,0.795,0.614,1.177,0.945c-1.481,0.412-2.946,0.926-4.381,1.539c-22.74,9.641-27.846,46.068-1.556,54.864
	c0.599,0.198,1.281,0.2,1.91,0.35c0.953,3.051,2.542,5.942,4.951,8.354c2.413,2.412,5.305,4.002,8.354,4.952
	c0.15,0.625,0.154,1.314,0.349,1.904c8.749,26.348,45.186,21.116,54.864-1.548c0.612-1.435,1.127-2.899,1.539-4.379
	c0.329,0.381,0.595,0.799,0.936,1.171c20.41,22.36,59.267,22.32,75.521-5.072c1.66-2.805,2.991-5.999,3.957-9.261H280.73
	c1.856,11.606,7.169,22.384,15.523,30.987l3.599,3.707l3.599-3.707c8.354-8.603,13.667-19.382,15.523-30.987H429.63
	c0.957,3.248,2.288,6.44,3.957,9.261c16.223,27.398,55.131,27.428,75.513,5.072c0.341-0.374,0.612-0.796,0.944-1.178
	c0.412,1.482,0.924,2.949,1.539,4.386c9.665,22.658,46.111,27.909,54.864,1.548c0.2-0.597,0.2-1.277,0.349-1.904
	c3.05-0.95,5.941-2.54,8.354-4.952c2.413-2.413,4.002-5.305,4.951-8.356c0.632-0.152,1.311-0.152,1.914-0.352
	C596.962,561.601,603.575,544.157,598.087,529.885z M573.869,447.711c11.829,12.226,12.635,31.554,3.703,45.653
	c-10.047,15.858-29.666,22.902-47.721,18.869c-38.612-8.624-48.508-53.71-29.502-84.256c21.589-33.815,33.775-71.919,36.583-110.603
	c5.122,1.568,10.48,2.403,15.951,2.488v108.351c-0.366-0.01-0.736-0.073-1.102-0.073c-20.434,0.283-39.707,18.416-34.215,39.865
	c2.15,8.395,8.375,15.715,16.805,18.233c9.796,2.926,22.357-1.976,23.838-13.081c0.191-1.494,0.033-3.32-0.195-4.389
	c-0.574-2.688-3.204-4.352-5.891-3.807c-2.692,0.545-4.435,3.208-3.923,5.908c0.046,0.237,0.079,0.799,0.062,0.974
	c-0.944,7.293-11.353,5.596-15.373,2.509c-7.35-5.645-7.546-16.435-3.256-23.949C538.878,434.207,561.981,435.39,573.869,447.711z
	 M309.72,553.941c0,10.58-3.47,20.682-9.869,28.974c-6.399-8.292-9.869-18.393-9.869-28.974c0-10.58,3.47-20.682,9.869-28.974
	C306.251,533.259,309.72,543.36,309.72,553.941z M303.451,513.825l-3.599-3.707l-3.599,3.707c-3.944,4.061-7.223,8.604-9.781,13.49
	c-53.812-3.138-106.716-25.173-147.739-66.195c-41.022-41.021-63.06-93.926-66.197-147.736c4.884-2.559,9.428-5.839,13.488-9.783
	l3.707-3.599l-3.707-3.599c-4.061-3.944-8.604-7.225-13.488-9.783c3.137-53.811,25.175-106.715,66.197-147.736
	c41.027-41.031,93.923-63.062,147.734-66.199c2.559,4.886,5.841,9.43,9.785,13.49l3.599,3.707l3.599-3.707
	c3.944-4.061,7.227-8.604,9.785-13.49c53.803,3.139,106.72,25.18,147.734,66.199c41.022,41.022,63.056,93.927,66.193,147.739
	c-4.884,2.559-9.428,5.837-13.488,9.781l-3.707,3.599l3.707,3.599c4.061,3.944,8.604,7.223,13.488,9.781
	c-3.137,53.812-25.171,106.716-66.193,147.738c-41.022,41.024-93.927,63.058-147.739,66.195
	C310.673,522.43,307.395,517.886,303.451,513.825z M118.418,473.369c1.115-5.746,1.473-11.554,1.057-17.266
	c-0.033-0.443-0.141-0.871-0.179-1.313c3.932,4.583,8.001,9.089,12.34,13.428c4.339,4.338,8.845,8.406,13.426,12.338
	c-0.441-0.039-0.87-0.149-1.311-0.181c-5.687-0.42-11.5-0.058-17.27,1.057c-3.977,0.776-7.863,2.076-11.678,3.62
	C116.341,481.238,117.644,477.352,118.418,473.369z M74.882,300.002c-16.575,12.798-41.359,12.798-57.943,0
	C33.523,287.204,58.307,287.204,74.882,300.002z M118.418,126.631c-0.774-3.984-2.076-7.868-3.615-11.678
	c3.811,1.54,7.697,2.84,11.678,3.615c5.67,1.101,11.508,1.476,17.27,1.057c0.445-0.032,0.869-0.141,1.315-0.181
	c-4.585,3.934-9.091,8.003-13.43,12.342c-4.339,4.339-8.408,8.845-12.344,13.428c0.042-0.442,0.15-0.87,0.183-1.313
	C119.886,138.188,119.533,132.38,118.418,126.631z M289.983,46.063c0-10.58,3.47-20.682,9.869-28.974
	c6.399,8.292,9.869,18.393,9.869,28.974s-3.47,20.682-9.869,28.969C293.453,66.745,289.983,56.643,289.983,46.063z M481.282,126.635
	c-1.115,5.762-1.469,11.574-1.057,17.27c0.033,0.441,0.141,0.864,0.179,1.303c-3.932-4.581-7.996-9.084-12.336-13.423
	c-4.339-4.339-8.845-8.408-13.43-12.342c0.445,0.041,0.87,0.15,1.315,0.181c5.761,0.42,11.598,0.045,17.266-1.057
	c3.986-0.775,7.872-2.076,11.683-3.62C483.358,118.766,482.056,122.655,481.282,126.635z M524.817,300.002
	c16.584-12.798,41.363-12.798,57.947,0C566.18,312.799,541.401,312.799,524.817,300.002z M468.068,468.218
	c4.339-4.338,8.404-8.843,12.34-13.424c-0.042,0.441-0.15,0.866-0.183,1.309c-0.412,5.696-0.058,11.504,1.057,17.266
	c0.774,3.977,2.072,7.863,3.616,11.68c-3.815-1.546-7.701-2.846-11.683-3.617c-5.754-1.115-11.562-1.477-17.262-1.057
	c-0.441,0.032-0.869,0.142-1.31,0.181C459.223,476.624,463.729,472.556,468.068,468.218z M577.568,106.635
	c14.34,22.622-0.245,60.362-30.728,54.732c-11.892-2.196-22.426-13.334-19.741-26.072c1.037-4.922,4.277-9.718,9.119-11.564
	c3.993-1.523,11.306-1.053,12.041,4.385c0.021,0.216-0.013,0.774-0.054,1.019c-0.578,2.708,1.148,5.371,3.857,5.949
	c2.725,0.57,5.371-1.152,5.954-3.857c0.229-1.069,0.387-2.896,0.191-4.414c-1.465-10.704-13.197-15.603-22.799-13.301
	c-8.921,2.139-15.604,9.755-17.84,18.481c-5.428,21.178,13.663,39.818,34.098,39.87c0.374-0.018,0.824-0.071,1.219-0.094v108.372
	c-5.471,0.085-10.83,0.919-15.951,2.488c-2.808-38.684-14.994-76.788-36.583-110.603c-14.258-22.915-14.035-53.167,6.795-72.32
	C527.509,80.981,562.115,82.273,577.568,106.635z M560.709,28.764c13.356,0,13.394,20.701,0,20.701
	C547.462,49.465,547.2,28.764,560.709,28.764z M519.059,29.604c2.241-16.303,25.168-28.422,36.092-12.257
	c0.383,0.571,0.636,1.294,0.953,1.965c-3.603,0.83-7.031,2.589-9.831,5.391c-18.618,18.598,10.256,47.504,28.878,28.882
	c2.742-2.741,4.556-6.141,5.404-9.827c0.666,0.316,1.381,0.565,1.951,0.944c16.777,11.337,3.292,34.547-13.398,36.198
	c-6.137,0.607-11.267-1.801-17.081-3.101c-9.809-2.193-20.384-1.485-29.897,1.681c-1.019,0.339-1.964,0.813-2.958,1.202
	c0.391-0.996,0.865-1.946,1.206-2.966c2.995-9.047,3.804-19.036,1.952-28.404C521.003,42.604,518.086,36.645,519.059,29.604z
	 M486.62,55.345c-1.322-6.758-6.576-12.751-13.588-13.696c-1.519-0.212-3.366-0.037-4.443,0.2c-2.675,0.591-4.319,3.212-3.765,5.9
	c0.553,2.684,3.212,4.423,5.916,3.898c0.229-0.042,0.761-0.079,0.953-0.054c5.439,0.759,6.002,7.999,4.431,12.044
	c-1.878,4.833-6.626,8.08-11.567,9.12c-12.697,2.672-23.84-7.818-26.059-19.686c-5.482-29.318,29.757-44.434,52.46-32.111
	c25.369,13.77,28.519,48.446,10.966,69.706c-18.743,22.701-50.339,23.543-74.086,8.842c-33.82-21.593-71.922-33.781-110.61-36.59
	c1.569-5.118,2.401-10.476,2.488-15.948h108.355c-0.013,0.404-0.079,0.807-0.079,1.211c0.021,16.734,12.089,32.754,29.216,34.789
	C472.861,84.829,489.849,72.326,486.62,55.345z M98.01,29.367c19.475-21.355,63.959-15.276,63.668,18.793
	c-0.11,12.898-10.195,25.971-24.068,24.942c-5.832-0.433-11.862-3.787-14.029-9.465c-1.535-4.021-1.043-11.3,4.41-12.04
	c0.216-0.017,0.74,0.008,0.973,0.05c2.684,0.587,5.371-1.123,5.966-3.823c0.595-2.704-1.115-5.38-3.824-5.979
	c-1.078-0.237-2.937-0.399-4.435-0.196c-10.713,1.444-15.61,13.202-13.309,22.799c2.139,8.919,9.75,15.593,18.471,17.836
	c21.182,5.448,39.828-13.665,39.88-34.098c0-0.403-0.066-0.809-0.079-1.215H279.99c0.087,5.472,0.919,10.83,2.488,15.948
	c-38.684,2.809-76.79,14.997-110.606,36.589c-21.589,13.003-48.642,14.448-68.494-3.061C84.202,79.534,80.238,48.797,98.01,29.367z
	 M28.605,39.144c0-13.505,20.779-13.226,20.777,0C49.381,52.421,28.605,52.74,28.605,39.144z M17.826,75.835
	C8.237,68.233,6.221,52.12,17.197,44.702c0.566-0.379,1.286-0.63,1.951-0.944c0.849,3.686,2.663,7.086,5.404,9.827
	C43.139,72.172,72.083,43.336,53.43,24.703c-2.8-2.8-6.228-4.558-9.831-5.39c0.316-0.67,0.57-1.395,0.953-1.966
	c11.337-16.777,34.545-3.295,36.2,13.396c0.608,6.135-1.803,11.269-3.103,17.083c-2.193,9.808-1.482,20.38,1.681,29.893
	c0.341,1.021,0.815,1.97,1.206,2.964c-0.998-0.389-1.947-0.865-2.966-1.205c-11.089-3.693-22.893-3.76-34.074-0.533
	C34.47,81.552,25.704,82.082,17.826,75.835z M25.834,152.292c-11.82-12.237-12.642-31.544-3.703-45.653
	c10.043-15.851,29.671-22.915,47.722-18.872c17.34,3.884,31.235,17.207,36.874,33.92c5.932,17.581,1.873,34.869-7.369,50.331
	c-21.593,33.817-33.783,71.922-36.591,110.609c-5.117-1.566-10.476-2.401-15.947-2.486V171.78c0.395,0.015,0.832,0.079,1.215,0.083
	c20.432-0.052,39.545-18.692,34.1-39.878c-2.157-8.389-8.371-15.696-16.795-18.217c-9.785-2.929-22.345,1.956-23.841,13.049
	c-0.204,1.51-0.042,3.362,0.196,4.439c0.595,2.684,3.224,4.356,5.904,3.778c2.688-0.553,4.418-3.224,3.898-5.916
	c-0.042-0.233-0.071-0.774-0.054-0.957c1.015-7.272,11.313-5.625,15.373-2.509c7.348,5.641,7.547,16.441,3.255,23.949
	C60.808,165.805,37.74,164.581,25.834,152.292z M22.132,493.364c-14.339-22.626,0.271-60.422,30.789-54.719
	c11.863,2.217,22.369,13.35,19.686,26.061c-1.039,4.922-4.279,9.719-9.12,11.566c-4.021,1.535-11.3,1.041-12.041-4.41
	c-0.021-0.208,0.008-0.736,0.05-0.965c0.591-2.7-1.115-5.371-3.815-5.97c-2.713-0.603-5.384,1.111-5.983,3.811
	c-0.241,1.078-0.403,2.929-0.2,4.443c1.444,10.709,13.193,15.605,22.788,13.311c8.928-2.134,15.604-9.751,17.847-18.478
	c5.438-21.163-13.661-39.849-34.098-39.875c-0.379-0.021-0.82,0.065-1.215,0.065V319.862c5.471-0.085,10.83-0.919,15.947-2.486
	c2.808,38.687,14.999,76.792,36.591,110.609c13.865,23.197,14.278,52.927-6.807,72.314
	C72.189,519.023,37.582,517.722,22.132,493.364z M31.651,568.203c-9.93-9.919,6.555-24.969,15.431-13.749
	C54.897,564.335,40.634,577.205,31.651,568.203z M80.645,570.399c-2.239,16.286-25.16,28.459-36.088,12.261
	c-0.383-0.574-0.637-1.299-0.957-1.97c3.603-0.83,7.035-2.589,9.835-5.39c18.583-18.593-10.236-47.529-28.882-28.882
	c-2.8,2.802-4.56,6.232-5.388,9.835c-0.67-0.317-1.402-0.572-1.968-0.953c-16.225-10.964-3.993-33.766,12.257-36.092
	c6.589-0.943,11.991,1.65,18.223,2.996c9.859,2.129,20.328,1.491,29.893-1.681c1.019-0.339,1.968-0.815,2.966-1.204
	c-0.391,0.994-0.865,1.943-1.206,2.964c-3.179,9.561-3.808,20.033-1.681,29.889C78.999,558.43,81.558,563.774,80.645,570.399z
	 M113.084,544.659c1.333,6.766,6.581,12.76,13.609,13.701c1.502,0.187,3.32,0.037,4.385-0.195c2.688-0.574,4.368-3.195,3.819-5.891
	c-0.541-2.696-3.241-4.418-5.904-3.923c-0.245,0.046-0.799,0.092-0.982,0.062c-5.449-0.705-5.99-8.035-4.431-12.045
	c1.879-4.834,6.623-8.078,11.564-9.119c12.693-2.672,23.839,7.806,26.061,19.674c5.491,29.323-29.749,44.441-52.455,32.123
	c-25.379-13.768-28.524-48.454-10.968-69.718c18.952-22.955,50.111-23.166,74.1-8.825c33.816,21.585,71.918,33.77,110.598,36.578
	c-1.569,5.12-2.405,10.48-2.492,15.953H171.634c0.012-0.408,0.079-0.813,0.079-1.219c-0.042-16.731-12.078-32.746-29.216-34.782
	C126.884,515.177,109.799,527.679,113.084,544.659z M501.689,570.637c-19.48,21.358-63.959,15.274-63.664-18.801
	c0.112-12.903,10.197-25.957,24.068-24.934c5.834,0.43,11.861,3.785,14.029,9.465c1.523,3.991,1.052,11.315-4.389,12.04
	c-0.204,0.021-0.778-0.012-1.015-0.054c-2.692-0.578-5.367,1.148-5.95,3.848c-0.582,2.708,1.14,5.38,3.848,5.962
	c1.073,0.229,2.904,0.387,4.414,0.191c10.712-1.42,15.599-13.214,13.311-22.788c-2.134-8.93-9.758-15.615-18.489-17.851
	c-21.158-5.418-39.837,13.66-39.863,34.098c0,0.406,0.066,0.811,0.079,1.219H319.714c-0.087-5.473-0.924-10.834-2.492-15.953
	c38.68-2.808,76.782-14.993,110.594-36.578c21.935-12.567,48.346-14.733,68.511,3.051
	C515.506,520.468,519.461,551.208,501.689,570.637z M568.053,568.203c-8.961,8.979-23.296-3.805-15.431-13.749
	C561.434,543.314,578.005,558.261,568.053,568.203z M589.75,543.918c-0.772,4.548-3.405,8.792-7.239,11.379
	c-0.57,0.384-1.298,0.638-1.972,0.955c-0.828-3.601-2.588-7.032-5.388-9.833c-18.591-18.591-47.521,10.234-28.882,28.882
	c2.8,2.801,6.232,4.56,9.835,5.39c-0.316,0.67-0.57,1.393-0.953,1.966c-11.34,16.78-34.541,3.291-36.199-13.397
	c-0.61-6.141,1.801-11.269,3.102-17.087c2.195-9.812,1.473-20.375-1.681-29.893c-0.337-1.017-0.815-1.966-1.202-2.958
	c0.994,0.391,1.947,0.866,2.966,1.207c8.167,2.704,16.949,3.543,25.474,2.416c5.436-0.718,10.454-3.09,15.848-3.785
	C577.526,517.347,592.378,528.842,589.75,543.918z" fill="rgba(0, 0, 0, 1.0)"></path>
            </g>
        </g>
        <g>
            <g data-element="icon" transform="scale(0.14166666666666666) translate(811.7651654411765 39.99998204848345)">
                <path id="color_x5F_1_52_" fill="rgba(0, 0, 0, 1.0)" d="M316.178,600c-33.322,0-64.896-7.414-93.293-20.527l-5.718-13.703    c-6.919-16.585-10.428-34.117-10.428-52.111c0-66.646,48.707-121.99,112.364-132.675c13.484,67.45,72.995,118.286,144.384,118.286    c8.289,0,16.452-0.674,24.362-2.02c6.479-1.053,12.832-2.567,19.018-4.46c-5.471,8.962-11.572,17.544-18.218,25.624    C447.75,568.232,385.689,600,316.178,600z M178.924,185.518C111.858,135.329,115.094,36.616,187.832,0    c-29.319,52.204-25.99,135.208,60.857,151.14c9.546,1.751,20.059,2.725,31.69,2.725h74.836c8.653,0,16.64-0.578,24.128-1.565    c94.17-12.418,98.565-98.628,68.42-152.3c85.032,42.804,75.118,170.472-31.133,206.244c-4.113,1.386-8.373,2.622-12.773,3.722    l100.444,145.319l-64.04,49.145c-26.129-23.646-60.802-38.079-98.837-38.079c-81.377,0-147.31,65.976-147.31,147.308    c0,20.198,4.083,39.426,11.402,56.973C138.363,532.215,93.132,459.844,93.132,376.912c0-76.37,38.415-143.704,96.926-183.906    C186.149,190.656,182.444,188.153,178.924,185.518z M405.728,261.191l-24.515-35.467l-4.272,29.007L405.728,261.191z"></path>
            </g>
            <text transform="translate(-80.93229675292969 167)" fill="rgba(0, 0, 0, 1.0)" font-family="Mallanna" font-size="64" data-element="company-name" dx="0 0 0 0 0 0 0 0 0 0 0 0 0 0 0 0 0 0 0" style="display: block;">the Bull's Paradise</text>
        </g>
    </g>
</svg>